<mxfile host="app.diagrams.net" modified="2024-01-09T13:25:51.251Z" agent="Mozilla/5.0 (Windows NT 10.0; Win64; x64) AppleWebKit/537.36 (KHTML, like Gecko) Chrome/120.0.0.0 Safari/537.36" etag="wrRKnzYbrps-sP6AxQ-q" version="22.1.17" type="device">
  <diagram name="Page-1" id="uXfuxQbusFfUYhc46sVx">
    <mxGraphModel dx="1900" dy="583" grid="1" gridSize="10" guides="1" tooltips="1" connect="1" arrows="1" fold="1" page="1" pageScale="1" pageWidth="850" pageHeight="1100" math="0" shadow="0">
      <root>
        <mxCell id="0" />
        <mxCell id="1" parent="0" />
        <mxCell id="ZOaNRlc9nS_vTaS68tfU-1" value="&lt;font style=&quot;font-size: 18px;&quot; face=&quot;Times New Roman&quot;&gt;Client 1&lt;/font&gt;" style="rounded=1;whiteSpace=wrap;html=1;" vertex="1" parent="1">
          <mxGeometry x="-12" y="370" width="120" height="60" as="geometry" />
        </mxCell>
        <mxCell id="ZOaNRlc9nS_vTaS68tfU-2" value="&lt;font style=&quot;font-size: 18px;&quot; face=&quot;Times New Roman&quot;&gt;Client 5&lt;/font&gt;" style="rounded=1;whiteSpace=wrap;html=1;" vertex="1" parent="1">
          <mxGeometry x="743" y="370" width="120" height="60" as="geometry" />
        </mxCell>
        <mxCell id="ZOaNRlc9nS_vTaS68tfU-3" value="&lt;font style=&quot;font-size: 18px;&quot; face=&quot;Times New Roman&quot;&gt;Client 4&lt;/font&gt;" style="rounded=1;whiteSpace=wrap;html=1;" vertex="1" parent="1">
          <mxGeometry x="553" y="370" width="120" height="60" as="geometry" />
        </mxCell>
        <mxCell id="ZOaNRlc9nS_vTaS68tfU-4" value="&lt;font style=&quot;font-size: 18px;&quot; face=&quot;Times New Roman&quot;&gt;Client 2&lt;/font&gt;" style="rounded=1;whiteSpace=wrap;html=1;" vertex="1" parent="1">
          <mxGeometry x="173" y="370" width="120" height="60" as="geometry" />
        </mxCell>
        <mxCell id="ZOaNRlc9nS_vTaS68tfU-5" value="&lt;font style=&quot;font-size: 18px;&quot; face=&quot;Times New Roman&quot;&gt;Client 3&lt;/font&gt;" style="rounded=1;whiteSpace=wrap;html=1;" vertex="1" parent="1">
          <mxGeometry x="363" y="370" width="120" height="60" as="geometry" />
        </mxCell>
        <mxCell id="ZOaNRlc9nS_vTaS68tfU-10" value="&lt;font style=&quot;font-size: 18px;&quot; face=&quot;Times New Roman&quot;&gt;Server&lt;/font&gt;" style="rounded=1;whiteSpace=wrap;html=1;" vertex="1" parent="1">
          <mxGeometry x="365" y="60" width="120" height="60" as="geometry" />
        </mxCell>
        <mxCell id="ZOaNRlc9nS_vTaS68tfU-11" value="" style="endArrow=classic;startArrow=classic;html=1;rounded=0;entryX=0;entryY=0.5;entryDx=0;entryDy=0;exitX=0.5;exitY=0;exitDx=0;exitDy=0;" edge="1" parent="1" source="ZOaNRlc9nS_vTaS68tfU-1" target="ZOaNRlc9nS_vTaS68tfU-10">
          <mxGeometry width="50" height="50" relative="1" as="geometry">
            <mxPoint x="160" y="260" as="sourcePoint" />
            <mxPoint x="210" y="210" as="targetPoint" />
          </mxGeometry>
        </mxCell>
        <mxCell id="ZOaNRlc9nS_vTaS68tfU-12" value="" style="endArrow=classic;startArrow=classic;html=1;rounded=0;entryX=0.25;entryY=1;entryDx=0;entryDy=0;exitX=0.5;exitY=0;exitDx=0;exitDy=0;" edge="1" parent="1" source="ZOaNRlc9nS_vTaS68tfU-4" target="ZOaNRlc9nS_vTaS68tfU-10">
          <mxGeometry width="50" height="50" relative="1" as="geometry">
            <mxPoint x="130" y="410" as="sourcePoint" />
            <mxPoint x="507" y="160" as="targetPoint" />
          </mxGeometry>
        </mxCell>
        <mxCell id="ZOaNRlc9nS_vTaS68tfU-13" value="" style="endArrow=classic;startArrow=classic;html=1;rounded=0;entryX=0.5;entryY=1;entryDx=0;entryDy=0;exitX=0.5;exitY=0;exitDx=0;exitDy=0;" edge="1" parent="1" source="ZOaNRlc9nS_vTaS68tfU-5" target="ZOaNRlc9nS_vTaS68tfU-10">
          <mxGeometry width="50" height="50" relative="1" as="geometry">
            <mxPoint x="410" y="400" as="sourcePoint" />
            <mxPoint x="602" y="150" as="targetPoint" />
          </mxGeometry>
        </mxCell>
        <mxCell id="ZOaNRlc9nS_vTaS68tfU-14" value="" style="endArrow=classic;startArrow=classic;html=1;rounded=0;entryX=0.75;entryY=1;entryDx=0;entryDy=0;exitX=0.5;exitY=0;exitDx=0;exitDy=0;" edge="1" parent="1" source="ZOaNRlc9nS_vTaS68tfU-3" target="ZOaNRlc9nS_vTaS68tfU-10">
          <mxGeometry width="50" height="50" relative="1" as="geometry">
            <mxPoint x="580" y="380" as="sourcePoint" />
            <mxPoint x="582" y="130" as="targetPoint" />
          </mxGeometry>
        </mxCell>
        <mxCell id="ZOaNRlc9nS_vTaS68tfU-15" value="" style="endArrow=classic;startArrow=classic;html=1;rounded=0;entryX=1;entryY=0.5;entryDx=0;entryDy=0;exitX=0.5;exitY=0;exitDx=0;exitDy=0;" edge="1" parent="1" source="ZOaNRlc9nS_vTaS68tfU-2" target="ZOaNRlc9nS_vTaS68tfU-10">
          <mxGeometry width="50" height="50" relative="1" as="geometry">
            <mxPoint x="708" y="340" as="sourcePoint" />
            <mxPoint x="520" y="90" as="targetPoint" />
          </mxGeometry>
        </mxCell>
      </root>
    </mxGraphModel>
  </diagram>
</mxfile>
